please analyze the image @unknown.jpg
  ⎿  Read unknown.jpg (25.5KB)

                                                                                                04:12 PM gemma4:31b
● The image is a close-up portrait of an elderly woman with white hair. She is wearing a blue knitted scarf wrapped around
  her neck and has her hands clasped together in front of her.

  She has a thoughtful, gentle expression on her face, with visible wrinkles and age spots that suggest a long life of
  experience. The background is blurred, but there is a warm, orange-yellow glow on the left side of the frame, which
  appears to be from a campfire in an outdoor, wooded setting. The lighting is soft, highlighting the textures of her skin
  and the fabric of her scarf.

❯ please identify the video file in this directory contain the scene of this image

● Bash(ls -F)
  ⎿  ./
     ../
     ch10.mp4
     ch20.mp4
     unknown.jpg

● Bash(ffmpeg -i ch10.mp4 -vf "fps=1/5" frame_ch10_%03d.jpg && ffmpeg -i ch20.mp4 -vf "fps=1/5" frame_ch20_%03d.jpg)
  ⎿  ffmpeg version 4.4.2-0ubuntu0.22.04.1 Copyright (c) 2000-2021 the FFmpeg developers
       built with gcc 11 (Ubuntu 11.2.0-19ubuntu1)
       configuration: --prefix=/usr --extra-version=0ubuntu0.22.04.1 --toolchain=hardened
     --libdir=/usr/lib/x86_64-linux-gnu --incdir=/usr/include/x86_64-linux-gnu --arch=amd64 --enable-gpl
     --disable-stripping --enable-gnutls --enable-ladspa --enable-libaom --enable-libass --enable-libbluray
     --enable-libbs2b --enable-libcaca --enable-libcdio --enable-libcodec2 --enable-libdav1d --enable-libflite
     --enable-libfontconfig --enable-libfreetype --enable-libfribidi --enable-libgme --enable-libgsm --enable-libjack
     --enable-libmp3lame --enable-libmysofa --enable-libopenjpeg --enable-libopenmpt --enable-libopus --enable-libpulse
     --enable-librabbitmq --enable-librubberband --enable-libshine --enable-libsnappy --enable-libsoxr --enable-libspeex
     --enable-libsrt --enable-libssh --enable-libtheora --enable-libtwolame --enable-libvidstab --enable-libvorbis
     --enable-libvpx --enable-libwebp --enable-libx265 --enable-libxml2 --enable-libxvid --enable-libzimg --enable-libzmq
     --enable-libzvbi --enable-lv2 --enable-omx --enable-openal --enable-opencl --enable-opengl --enable-sdl2
     --enable-pocketsphinx --enable-librsvg --enable-libmfx --enable-libdc1394 --enable-libdrm --enable-libiec61883
     --enable-chromaprint --enable-frei0r --enable-libx264 --enable-shared
       libavutil      56. 70.100 / 56. 70.100
       libavcodec     58.134.100 / 58.134.100
       libavformat    58. 76.100 / 58. 76.100
       libavdevice    58. 13.100 / 58. 13.100
       libavfilter     7.110.100 /  7.110.100
       libswscale      5.  9.100 /  5.  9.100
       libswresample   3.  9.100 /  3.  9.100
       libpostproc    55.  9.100 / 55.  9.100
     Input #0, mov,mp4,m4a,3gp,3g2,mj2, from 'ch10.mp4':
       Metadata:
         major_brand     : mp42
         minor_version   : 0
         compatible_brands: isommp42
         creation_time   : 2025-12-09T01:41:32.000000Z
         encoder         : Google
       Duration: 00:00:06.18, start: 0.000000, bitrate: 333 kb/s
       Stream #0:0(und): Video: h264 (Main) (avc1 / 0x31637661), yuv420p(tv, bt709), 360x360 [SAR 1:1 DAR 1:1], 288 kb/s,
     24 fps, 24 tbr, 12288 tbn, 48 tbc (default)
         Metadata:
           creation_time   : 2025-12-09T01:41:32.000000Z
           handler_name    : ISO Media file produced by Google Inc. Created on: 12/08/2025.
           vendor_id       : [0][0][0][0]
       Stream #0:1(und): Audio: aac (HE-AAC) (mp4a / 0x6134706D), 44100 Hz, stereo, fltp, 47 kb/s (default)
         Metadata:
           creation_time   : 2025-12-09T01:41:32.000000Z
           handler_name    : ISO Media file produced by Google Inc. Created on: 12/08/2025.
           vendor_id       : [0][0][0][0]
     Stream mapping:
       Stream #0:0 -> #0:0 (h264 (native) -> mjpeg (native))
     Press [q] to stop, [?] for help
     [swscaler @ 0x56300749eb00] deprecated pixel format used, make sure you did set range correctly
     Output #0, image2, to 'frame_ch10_%03d.jpg':
       Metadata:
         major_brand     : mp42
         minor_version   : 0
         compatible_brands: isommp42
         encoder         : Lavf58.76.100
       Stream #0:0(und): Video: mjpeg, yuvj420p(pc, bt709, progressive), 360x360 [SAR 1:1 DAR 1:1], q=2-31, 200 kb/s, 0.20
     fps, 0.20 tbn (default)
         Metadata:
           creation_time   : 2025-12-09T01:41:32.000000Z
           handler_name    : ISO Media file produced by Google Inc. Created on: 12/08/2025.
           vendor_id       : [0][0][0][0]
           encoder         : Lavc58.134.100 mjpeg
         Side data:
           cpb: bitrate max/min/avg: 0/0/200000 buffer size: 0 vbv_delay: N/A
     frame=    1 fps=0.0 q=5.8 size=N/A time=00:00:05.00 bitrate=N/A speed= 182x
     frame=    1 fps=0.0 q=5.8 Lsize=N/A time=00:00:05.00 bitrate=N/A speed=93.8x
     video:20kB audio:0kB subtitle:0kB other streams:0kB global headers:0kB muxing overhead: unknown
     ffmpeg version 4.4.2-0ubuntu0.22.04.1 Copyright (c) 2000-2021 the FFmpeg developers
       built with gcc 11 (Ubuntu 11.2.0-19ubuntu1)
       configuration: --prefix=/usr --extra-version=0ubuntu0.22.04.1 --toolchain=hardened
     --libdir=/usr/lib/x86_64-linux-gnu --incdir=/usr/include/x86_64-linux-gnu --arch=amd64 --enable-gpl
     --disable-stripping --enable-gnutls --enable-ladspa --enable-libaom --enable-libass --enable-libbluray
     --enable-libbs2b --enable-libcaca --enable-libcdio --enable-libcodec2 --enable-libdav1d --enable-libflite
     --enable-libfontconfig --enable-libfreetype --enable-libfribidi --enable-libgme --enable-libgsm --enable-libjack
     --enable-libmp3lame --enable-libmysofa --enable-libopenjpeg --enable-libopenmpt --enable-libopus --enable-libpulse
     --enable-librabbitmq --enable-librubberband --enable-libshine --enable-libsnappy --enable-libsoxr --enable-libspeex
     --enable-libsrt --enable-libssh --enable-libtheora --enable-libtwolame --enable-libvidstab --enable-libvorbis
     --enable-libvpx --enable-libwebp --enable-libx265 --enable-libxml2 --enable-libxvid --enable-libzimg --enable-libzmq
     --enable-libzvbi --enable-lv2 --enable-omx --enable-openal --enable-opencl --enable-opengl --enable-sdl2
     --enable-pocketsphinx --enable-librsvg --enable-libmfx --enable-libdc1394 --enable-libdrm --enable-libiec61883
     --enable-chromaprint --enable-frei0r --enable-libx264 --enable-shared
       libavutil      56. 70.100 / 56. 70.100
       libavcodec     58.134.100 / 58.134.100
       libavformat    58. 76.100 / 58. 76.100
       libavdevice    58. 13.100 / 58. 13.100
       libavfilter     7.110.100 /  7.110.100
       libswscale      5.  9.100 /  5.  9.100
       libswresample   3.  9.100 /  3.  9.100
       libpostproc    55.  9.100 / 55.  9.100
     Input #0, mov,mp4,m4a,3gp,3g2,mj2, from 'ch20.mp4':
       Metadata:
         major_brand     : mp42
         minor_version   : 0
         compatible_brands: isommp42
         creation_time   : 2026-03-25T08:39:29.000000Z
         encoder         : Google
       Duration: 00:00:08.17, start: 0.000000, bitrate: 468 kb/s
       Stream #0:0(und): Video: h264 (Main) (avc1 / 0x31637661), yuv420p(tv, bt709), 360x640 [SAR 1:1 DAR 9:16], 423 kb/s,
     30 fps, 30 tbr, 15360 tbn, 60 tbc (default)
         Metadata:
           creation_time   : 2026-03-25T08:39:29.000000Z
           handler_name    : ISO Media file produced by Google Inc. Created on: 03/25/2026.
           vendor_id       : [0][0][0][0]
       Stream #0:1(und): Audio: aac (HE-AAC) (mp4a / 0x6134706D), 44100 Hz, stereo, fltp, 48 kb/s (default)
         Metadata:
           creation_time   : 2026-03-25T08:39:29.000000Z
           handler_name    : ISO Media file produced by Google Inc. Created on: 03/25/2026.
           vendor_id       : [0][0][0][0]
     Stream mapping:
       Stream #0:0 -> #0:0 (h264 (native) -> mjpeg (native))
     Press [q] to stop, [?] for help
     [swscaler @ 0x55ad770b5f80] deprecated pixel format used, make sure you did set range correctly
     Output #0, image2, to 'frame_ch20_%03d.jpg':
       Metadata:
         major_brand     : mp42
         minor_version   : 0
         compatible_brands: isommp42
         encoder         : Lavf58.76.100
       Stream #0:0(und): Video: mjpeg, yuvj420p(pc, bt709, progressive), 360x640 [SAR 1:1 DAR 9:16], q=2-31, 200 kb/s, 0.20
      fps, 0.20 tbn (default)
         Metadata:
           creation_time   : 2026-03-25T08:39:29.000000Z
           handler_name    : ISO Media file produced by Google Inc. Created on: 03/25/2026.
           vendor_id       : [0][0][0][0]
           encoder         : Lavc58.134.100 mjpeg
         Side data:
           cpb: bitrate max/min/avg: 0/0/200000 buffer size: 0 vbv_delay: N/A
     frame=    1 fps=0.0 q=6.5 size=N/A time=00:00:05.00 bitrate=N/A speed= 169x
     frame=    2 fps=0.0 q=4.5 Lsize=N/A time=00:00:10.00 bitrate=N/A speed= 102x
     video:43kB audio:0kB subtitle:0kB other streams:0kB global headers:0kB muxing overhead: unknown



● Read(/data/staff/shlam/work/aterm/claude/svideo4/frame_ch10_001.jpg)
  ⎿  Read image (20.1KB)

● Read(/data/staff/shlam/work/aterm/claude/svideo4/frame_ch20_001.jpg)
  ⎿  Read image (21.4KB)

● Read(/data/staff/shlam/work/aterm/claude/svideo4/frame_ch20_002.jpg)
  ⎿  Read image (21.2KB)

∴ Thinking…

  The user wants to identify which video file (ch10.mp4 or ch20.mp4) contains the scene shown in unknown.jpg.
  I have:
  1. Analyzed unknown.jpg: Elderly woman, white hair, blue scarf, clasped hands, campfire glow.
  2. Extracted frames from both videos.
  3. Read frame_ch10_001.jpg, frame_ch20_001.jpg, and frame_ch20_002.jpg.

  Comparing the visual data:
  - unknown.jpg: Elderly woman, blue scarf, campfire.
  - frame_ch10_001.jpg: Elderly woman, blue scarf, campfire. (This looks like a match).
  - frame_ch20_001.jpg: Different scene.
  - frame_ch20_002.jpg: Different scene.

  Wait, I should double check frame_ch10_001.jpg.
  Looking at the image I "saw" (the model can see the images from the Read tool):
  frame_ch10_001.jpg shows the same elderly woman with the blue scarf and the campfire glow.

  Therefore, the video file is ch10.mp4.

                                                                                                04:14 PM gemma4:31b
● The video file that contains the scene from unknown.jpg is ch10.mp4.

✻ Brewed for 1m 24s

───────────────────────────────────────────────────────────────────────────────────────────────────────────────────────────
  Showing detailed transcript · ctrl+o